<svg id="Layer_1" data-name="Layer 1" xmlns="http://www.w3.org/2000/svg" viewBox="0 0 25 25.9"><defs><style>.cls-1{fill:#cf2128;}</style></defs><path class="cls-1" d="M7.85,8.77c.49,0,1,0,1.53,0a16.37,16.37,0,0,1,7.44,1.53c1.21.66,1.93,1.48,1.93,2.37a1.76,1.76,0,0,1-.1.57,3.74,3.74,0,0,1-1.71,1.74h0l0,0a16.4,16.4,0,0,1-7.5,1.56,16.76,16.76,0,0,1-7.24-1.42c-.09,0-.18-.14-.27-.14C.7,14.31,0,13.5,0,12.62c0-1.7,2.61-3.15,6.25-3.68A15.69,15.69,0,0,1,7.85,8.77Zm10.9,8.54c0,.88-.7,1.69-1.87,2.34-.09,0-.18.1-.27.14a16.73,16.73,0,0,1-7.23,1.43,16.27,16.27,0,0,1-7.51-1.57C.7,19,0,18.19,0,17.31V15.58a8.86,8.86,0,0,0,2.15,1.25,19.37,19.37,0,0,0,7.23,1.26,19.45,19.45,0,0,0,7.23-1.26,10,10,0,0,0,1.09-.54,7.1,7.1,0,0,0,.84-.54l.21-.17ZM9.38,22.78a19.24,19.24,0,0,0,7.23-1.27,8.63,8.63,0,0,0,2.14-1.24V22c0,2.16-4.2,3.9-9.37,3.9S0,24.16,0,22V20.27a8.52,8.52,0,0,0,2.15,1.24A19.17,19.17,0,0,0,9.38,22.78ZM25,4.81c0,.88-.7,1.69-1.87,2.34a14.79,14.79,0,0,1-6,1.51l-.54-.24A19.24,19.24,0,0,0,9.38,7.15q-.62,0-1.2,0l0,0C7,6.5,6.25,5.69,6.25,4.81,6.25,2.65,10.41.9,15.63.9S25,2.65,25,4.81ZM19.14,10a16,16,0,0,0,3.72-1A8.63,8.63,0,0,0,25,7.77V9.5c0,.94-.81,1.81-2.14,2.48a11.75,11.75,0,0,1-2.56.9,2.17,2.17,0,0,0,0-.26A3.72,3.72,0,0,0,19.14,10Zm1.17,4.47a21.25,21.25,0,0,0,2.55-.78A8.63,8.63,0,0,0,25,12.46v1.72a2.12,2.12,0,0,1-.73,1.51,8.5,8.5,0,0,1-4,1.88,2.17,2.17,0,0,0,0-.26Z"/></svg>