<svg id="Layer_1" data-name="Layer 1" xmlns="http://www.w3.org/2000/svg" viewBox="0 0 25 25.9"><defs><style>.cls-1{fill:#cf2128;}</style></defs><path class="cls-1" d="M25,13.4A12.5,12.5,0,1,1,12.5.9,12.5,12.5,0,0,1,25,13.4ZM8,5.82,6.48,7.38a.78.78,0,1,0,1.1,1.11L9.15,6.92A.78.78,0,0,0,8,5.82ZM21.41,18.29a1.08,1.08,0,0,0-.64-.2,1.14,1.14,0,0,1-.78-.32l-.7-.7a2,2,0,0,0-1.37-.54,2,2,0,0,1-1.29-.48l-1.34-1.11a3,3,0,0,0-2-.8h-1a3.19,3.19,0,0,0-1.74.57L9.2,15.6a3.13,3.13,0,0,0-1.39,2.6v.16a3.12,3.12,0,0,0,.92,2.21l.78.78a2.21,2.21,0,0,0,1.56.65h1a1.17,1.17,0,0,1,1.17,1.17,1.49,1.49,0,0,0,.05.36A10.2,10.2,0,0,0,21.41,18.29ZM13,3.26,11.35,4.5a1,1,0,0,0-.41.83v.44a.6.6,0,0,0,.6.6.56.56,0,0,0,.33-.1l2-1.36a.58.58,0,0,1,.33-.1h0a.55.55,0,0,1,.55.55.51.51,0,0,1-.16.39l-1,1a3.12,3.12,0,0,1-1,.62l-1.3.44a.68.68,0,0,0-.47.65.74.74,0,0,1-.2.49l-.88.87A1.67,1.67,0,0,0,9.38,11v.2a1.46,1.46,0,0,0,1.45,1.45,1.43,1.43,0,0,0,1.28-.78l.19-.39a.72.72,0,0,1,.63-.39.69.69,0,0,1,.56.28l.8,1.06a.55.55,0,0,0,.93-.58l-.05-.11a.63.63,0,0,1,.36-.88l1-.35a.9.9,0,0,0,.62-.86.9.9,0,0,1,.91-.9h1.43a.78.78,0,1,1,0,1.56h-1a1.33,1.33,0,0,0-.94.39l-.23.23a.55.55,0,0,0,.39.94h.55a1.12,1.12,0,0,1,.78.32l.32.33a.53.53,0,0,1,.14.33.75.75,0,0,1-.14.33l-.36.37a.86.86,0,0,0-.28.66,1,1,0,0,0,.28.67l.89.9a2.67,2.67,0,0,0,1.89.78h.31a8.88,8.88,0,0,0,.54-3.13A10.15,10.15,0,0,0,13,3.26Z"/></svg>