<svg id="Layer_1" data-name="Layer 1" xmlns="http://www.w3.org/2000/svg" viewBox="0 0 31.25 25.9"><defs><style>.cls-1{fill:#cf2128;}</style></defs><path class="cls-1" d="M7.42,25.9a1.56,1.56,0,0,1-1.56-1.56V13.45l-1.4,2.32a1.56,1.56,0,1,1-2.67-1.61L4.63,9.43a4.7,4.7,0,0,1,4-2.28h7V3.25A2.34,2.34,0,0,1,18,.9H28.91a2.35,2.35,0,0,1,2.34,2.35V14.18a2.35,2.35,0,0,1-2.34,2.35H18a2.34,2.34,0,0,1-2.34-2.35V11.84h3.12V13.4h9.38V4H18.75V7.15h.78a1.57,1.57,0,0,1,0,3.13H12.89V24.34a1.56,1.56,0,1,1-3.12,0V18.09H9v6.25A1.55,1.55,0,0,1,7.42,25.9ZM7,3.25A2.35,2.35,0,1,1,9.38,5.59,2.35,2.35,0,0,1,7,3.25Z"/></svg>