<svg id="Layer_1" data-name="Layer 1" xmlns="http://www.w3.org/2000/svg" viewBox="0 0 25.96 23.91"><defs><style>.cls-1{fill:#fff;}</style></defs><path class="cls-1" d="M24.17,11.92c-1.69,2.51-4.53,4.28-8.45,5.29a1.92,1.92,0,0,0-1.42,1.86,2,2,0,0,0,2,2h.21a2.16,2.16,0,0,1,2.16,2.16.68.68,0,0,1-.68.72H7.89a.72.72,0,0,1-.68-.72A2.17,2.17,0,0,1,9.38,21h.2a2,2,0,0,0,2-2,1.91,1.91,0,0,0-1.42-1.86c-3.91-1-6.76-2.78-8.45-5.29A9.91,9.91,0,0,1,.18,4.55a1.07,1.07,0,0,1,1.05-.83H5.77a12.1,12.1,0,0,1,0-1.49A1.44,1.44,0,0,1,7.22.83H18.74a1.43,1.43,0,0,1,1.44,1.4c0,.42,0,.93,0,1.49h4.54a1.09,1.09,0,0,1,1.06.83A9.73,9.73,0,0,1,24.17,11.92ZM8.4,14.41A19.34,19.34,0,0,1,5.8,5.88H2.18a7.9,7.9,0,0,0,1.31,4.86A10.35,10.35,0,0,0,8.4,14.41ZM23.78,5.88H20.16a19.13,19.13,0,0,1-2.6,8.52,10.22,10.22,0,0,0,4.91-3.66A8.17,8.17,0,0,0,23.78,5.88Z"/></svg>