<svg id="Layer_1" data-name="Layer 1" xmlns="http://www.w3.org/2000/svg" viewBox="0 0 23.08 23.91"><defs><style>.cls-1{fill:#fff;}</style></defs><path class="cls-1" d="M5.77,2.28V5.12H0V2.28A1.44,1.44,0,0,1,1.4.83H4.33A1.45,1.45,0,0,1,5.77,2.28ZM0,6.6H5.77V18.14H0Zm0,13H5.77l-.08,2.84a1.4,1.4,0,0,1-1.4,1.4H1.4A1.4,1.4,0,0,1,0,22.43Zm7.17-.09H12.9v2.89a1.39,1.39,0,0,1-1.4,1.44H8.65a1.41,1.41,0,0,1-1.44-1.4ZM18.55,4.68,13,6.17l-.27-1H7.21l0-2.92A1.44,1.44,0,0,1,8.69.83h2.85a1.45,1.45,0,0,1,1.35,1,1.52,1.52,0,0,1,.36-.18L16,.88a1.44,1.44,0,0,1,1.76,1ZM7.21,6.6h5.73V18.14H7.21ZM21.92,17.19l-5.58,1.49-3-11.12,5.57-1.49ZM22,23.12l-2.78.74a1.45,1.45,0,0,1-1.77-1l-.75-2.78,5.58-1.49L23,21.36A1.44,1.44,0,0,1,22,23.12Z"/></svg>