<svg id="Layer_1" data-name="Layer 1" xmlns="http://www.w3.org/2000/svg" viewBox="0 0 31.25 25.9"><defs><style>.cls-1{fill:#cf2128;}</style></defs><path class="cls-1" d="M31.25,8.72a1.19,1.19,0,0,1-.78,1.12L16.66,14.79a3.07,3.07,0,0,1-2.07,0L5.28,11.45a5.21,5.21,0,0,0-1.21,2.3A1.53,1.53,0,0,1,4.69,15a1.62,1.62,0,0,1-.59,1.19l1.22,7.27a.78.78,0,0,1-.77.91H1.7a.78.78,0,0,1-.77-.91l1.22-7.27a1.53,1.53,0,0,1,.37-2.63,6.81,6.81,0,0,1,1.19-2.64L.78,9.84A1.18,1.18,0,0,1,0,8.72,1.19,1.19,0,0,1,.78,7.59L14.55,2.65a3.07,3.07,0,0,1,2.07,0l13.8,4.94A1.17,1.17,0,0,1,31.25,8.72Zm-7,5,.72,7c0,2-4.24,3.65-9.37,3.65s-9.38-1.63-9.38-3.65l.72-7,7.09,2.54a4.67,4.67,0,0,0,1.57.27,4,4,0,0,0,1.51-.28Z"/></svg>