<svg id="Layer_1" data-name="Layer 1" xmlns="http://www.w3.org/2000/svg" viewBox="0 0 27.5 22.79"><defs><style>.cls-1{fill:#fff;}</style></defs><path class="cls-1" d="M0,6.31H4.13v9.61a1.37,1.37,0,0,1-1.38,1.37H0Zm1.38,8.93a.69.69,0,1,0,.68-.69A.69.69,0,0,0,1.38,15.24Zm19.41.11a1.37,1.37,0,0,1,.2,1.93l-.41.51a1.38,1.38,0,0,1-1.93.2l-.23-.19-1.35,1.66a1.64,1.64,0,0,1-2.25.23L14,19a2.75,2.75,0,0,1-3.87.4L6.28,15.91H5.5V6.29a9.43,9.43,0,0,1,6.63-2.75h.28L8.91,6.76a3.09,3.09,0,1,0,4.18,4.56l1.29-1.18ZM15.36,3.51A9.37,9.37,0,0,1,22,6.26v8.35a3.51,3.51,0,0,0-.33-.34L15.4,9.2l1.12-1a.68.68,0,0,0,0-1,.69.69,0,0,0-1,0L12.16,10.3h0a1.83,1.83,0,0,1-2.41-.12,1.7,1.7,0,0,1,.09-2.4s0,0,0,0L14.06,3.9A1.39,1.39,0,0,1,15,3.54ZM27.5,6.3v11H24.71a1.37,1.37,0,0,1-1.33-1.38V6.31Zm-1.37,8.94a.69.69,0,0,0-.69-.69.68.68,0,0,0-.69.68.69.69,0,0,0,1.38,0Z"/></svg>