<svg id="Layer_1" data-name="Layer 1" xmlns="http://www.w3.org/2000/svg" viewBox="0 0 56.65 56.99"><defs><style>.cls-1{fill:#cf2128;}</style></defs><path class="cls-1" d="M40.61,34.92l-8.15,7.94L34.38,54.1a2.47,2.47,0,0,1-3.59,2.6L20.72,51.39,10.65,56.7a2.47,2.47,0,0,1-3.58-2.6L8.91,42.86l-8.16-8a2.46,2.46,0,0,1,1.37-4.22l11.26-1.64,5-10.23a2.47,2.47,0,0,1,4.43,0l5,10.23,11.26,1.64A2.53,2.53,0,0,1,40.61,34.92ZM24.82,11.54a2.57,2.57,0,0,1,0-3.64L30,2.74a2.58,2.58,0,0,1,3.64,3.65l-5.15,5.15a2.57,2.57,0,0,1-3.65,0Zm8.59,8.39L50.6,2.74a2.58,2.58,0,0,1,3.65,3.65L37.06,23.58a2.58,2.58,0,0,1-1.82.75,2.34,2.34,0,0,1-1.83-.85A2.47,2.47,0,0,1,33.41,19.93Zm20.84,3.44a2.58,2.58,0,0,1,0,3.64l-5.16,5.16a2.58,2.58,0,0,1-3.65-3.65l5.16-5.16A2.6,2.6,0,0,1,54.25,23.37Z"/></svg>